<?xml version="1.0" encoding="UTF-8" standalone="no"?>
<!-- Created with Inkscape (http://www.inkscape.org/) -->

<svg
   xmlns:dc="http://purl.org/dc/elements/1.1/"
   xmlns:cc="http://creativecommons.org/ns#"
   xmlns:rdf="http://www.w3.org/1999/02/22-rdf-syntax-ns#"
   xmlns:svg="http://www.w3.org/2000/svg"
   xmlns="http://www.w3.org/2000/svg"
   xmlns:sodipodi="http://sodipodi.sourceforge.net/DTD/sodipodi-0.dtd"
   xmlns:inkscape="http://www.inkscape.org/namespaces/inkscape"
   width="48px"
   height="48px"
   id="svg2985"
   version="1.1"
   inkscape:version="0.48.4 r9939"
   sodipodi:docname="New document 2">
  <defs
     id="defs2987" />
  <sodipodi:namedview
     id="base"
     pagecolor="#ffffff"
     bordercolor="#666666"
     borderopacity="1.0"
     inkscape:pageopacity="0.0"
     inkscape:pageshadow="2"
     inkscape:zoom="9.8994949"
     inkscape:cx="7.3295669"
     inkscape:cy="16.864255"
     inkscape:current-layer="layer1"
     showgrid="true"
     inkscape:grid-bbox="true"
     inkscape:document-units="px"
     inkscape:window-width="1856"
     inkscape:window-height="1080"
     inkscape:window-x="64"
     inkscape:window-y="0"
     inkscape:window-maximized="1" />
  <metadata
     id="metadata2990">
    <rdf:RDF>
      <cc:Work
         rdf:about="">
        <dc:format>image/svg+xml</dc:format>
        <dc:type
           rdf:resource="http://purl.org/dc/dcmitype/StillImage" />
        <dc:title></dc:title>
      </cc:Work>
    </rdf:RDF>
  </metadata>
  <g
     id="layer1"
     inkscape:label="Layer 1"
     inkscape:groupmode="layer">
    <path
       style="color:#000000;fill:#00000a;fill-opacity:1;fill-rule:evenodd;stroke:#00000a;stroke-width:1;stroke-linecap:butt;stroke-linejoin:round;stroke-miterlimit:4;stroke-opacity:1;stroke-dasharray:none;stroke-dashoffset:0;marker:none;visibility:visible;display:inline;overflow:visible;enable-background:accumulate"
       d="M 10.909647,0.51293292 0.70710678,15.210653 47.275139,15.412683 37.476659,0.5634406 z"
       id="path2995"
       inkscape:connector-curvature="0"
       sodipodi:nodetypes="ccccc" />
    <path
       style="color:#000000;fill:#00000a;fill-opacity:1;fill-rule:evenodd;stroke:#00000a;stroke-width:1.06667042;stroke-linecap:butt;stroke-linejoin:round;stroke-miterlimit:4;stroke-opacity:1;stroke-dasharray:none;stroke-dashoffset:0;marker:none;visibility:visible;display:inline;overflow:visible;enable-background:accumulate"
       d="M 0.625 17.78125 L 0.625 25.46875 L 47.53125 25.46875 L 47.53125 17.78125 L 0.625 17.78125 z M 3.15625 19.875 L 6.53125 19.875 L 6.53125 23.25 L 3.15625 23.25 L 3.15625 19.875 z M 9.03125 19.875 L 12.40625 19.875 L 12.40625 23.25 L 9.03125 23.25 L 9.03125 19.875 z M 14.46875 19.875 L 17.84375 19.875 L 17.84375 23.25 L 14.46875 23.25 L 14.46875 19.875 z M 37.03125 19.875 L 40.40625 19.875 L 40.40625 23.25 L 37.03125 23.25 L 37.03125 19.875 z M 42.09375 19.875 L 45.46875 19.875 L 45.46875 23.25 L 42.09375 23.25 L 42.09375 19.875 z "
       id="rect3765" />
    <path
       id="path3817"
       d="m 0.625,28.589883 0,7.6875 46.90625,0 0,-7.6875 -46.90625,0 z m 2.53125,2.09375 3.375,0 0,3.375 -3.375,0 0,-3.375 z m 5.875,0 3.375,0 0,3.375 -3.375,0 0,-3.375 z m 5.4375,0 3.375,0 0,3.375 -3.375,0 0,-3.375 z m 22.5625,0 3.375,0 0,3.375 -3.375,0 0,-3.375 z m 5.0625,0 3.375,0 0,3.375 -3.375,0 0,-3.375 z"
       style="color:#000000;fill:#00000a;fill-opacity:1;fill-rule:evenodd;stroke:#00000a;stroke-width:1.06667042;stroke-linecap:butt;stroke-linejoin:round;stroke-miterlimit:4;stroke-opacity:1;stroke-dasharray:none;stroke-dashoffset:0;marker:none;visibility:visible;display:inline;overflow:visible;enable-background:accumulate"
       inkscape:connector-curvature="0" />
    <path
       inkscape:connector-curvature="0"
       style="color:#000000;fill:#00000a;fill-opacity:1;fill-rule:evenodd;stroke:#00000a;stroke-width:1.06667042;stroke-linecap:butt;stroke-linejoin:round;stroke-miterlimit:4;stroke-opacity:1;stroke-dasharray:none;stroke-dashoffset:0;marker:none;visibility:visible;display:inline;overflow:visible;enable-background:accumulate"
       d="m 0.625,38.792423 0,7.6875 46.90625,0 0,-7.6875 -46.90625,0 z m 2.53125,2.09375 3.375,0 0,3.375 -3.375,0 0,-3.375 z m 5.875,0 3.375,0 0,3.375 -3.375,0 0,-3.375 z m 5.4375,0 3.375,0 0,3.375 -3.375,0 0,-3.375 z m 22.5625,0 3.375,0 0,3.375 -3.375,0 0,-3.375 z m 5.0625,0 3.375,0 0,3.375 -3.375,0 0,-3.375 z"
       id="path3819" />
  </g>
</svg>
